<?xml version="1.0" encoding="UTF-8" standalone="no"?>
<!DOCTYPE svg PUBLIC "-//W3C//DTD SVG 1.1//EN"
 "http://www.w3.org/Graphics/SVG/1.1/DTD/svg11.dtd">
<!-- Generated by graphviz version 2.40.1 (20161225.0304)
 -->
<!-- Title: dependencies Pages: 1 -->
<svg width="1634pt" height="284pt"
 viewBox="0.00 0.00 1634.00 284.00" xmlns="http://www.w3.org/2000/svg" xmlns:xlink="http://www.w3.org/1999/xlink">
<g id="graph0" class="graph" transform="scale(1 1) rotate(0) translate(4 280)">
<title>dependencies</title>
<polygon fill="#ffffff" stroke="transparent" points="-4,4 -4,-280 1630,-280 1630,4 -4,4"/>
<text text-anchor="start" x="792.0091" y="-42.4" font-family="sans-serif" font-weight="bold" font-size="14.00" fill="#000000">Legend</text>
<polygon fill="#ffffb3" stroke="transparent" points="579,-10 579,-30 599,-30 599,-10 579,-10"/>
<text text-anchor="start" x="602.629" y="-15.4" font-family="sans-serif" font-size="14.00" fill="#000000"> &#160;Declarations</text>
<polygon fill="#8dd3c7" stroke="transparent" points="692,-10 692,-30 712,-30 712,-10 692,-10"/>
<text text-anchor="start" x="715.7251" y="-15.4" font-family="sans-serif" font-size="14.00" fill="#000000"> &#160;Module</text>
<polygon fill="#80b1d3" stroke="transparent" points="778,-10 778,-30 798,-30 798,-10 778,-10"/>
<text text-anchor="start" x="801.7812" y="-15.4" font-family="sans-serif" font-size="14.00" fill="#000000"> &#160;Bootstrap</text>
<polygon fill="#fdb462" stroke="transparent" points="875,-10 875,-30 895,-30 895,-10 875,-10"/>
<text text-anchor="start" x="898.6732" y="-15.4" font-family="sans-serif" font-size="14.00" fill="#000000"> &#160;Providers</text>
<polygon fill="#fb8072" stroke="transparent" points="971,-10 971,-30 991,-30 991,-10 971,-10"/>
<text text-anchor="start" x="994.7258" y="-15.4" font-family="sans-serif" font-size="14.00" fill="#000000"> &#160;Exports</text>
<g id="clust1" class="cluster">
<title>cluster_AppModule</title>
<polygon fill="none" stroke="#000000" stroke-dasharray="1,5" points="8,-70 8,-268 1618,-268 1618,-70 8,-70"/>
</g>
<g id="clust2" class="cluster">
<title>cluster_AppModule_declarations</title>
<polygon fill="none" stroke="#000000" points="168,-78 168,-130 1610,-130 1610,-78 168,-78"/>
</g>
<g id="clust13" class="cluster">
<title>cluster_AppModule_imports</title>
<polygon fill="none" stroke="#000000" points="16,-78 16,-130 160,-130 160,-78 16,-78"/>
</g>
<g id="clust15" class="cluster">
<title>cluster_AppModule_bootstrap</title>
<polygon fill="none" stroke="#000000" points="815,-208 815,-260 945,-260 945,-208 815,-208"/>
</g>
<!-- AppComponent -->
<g id="node1" class="node">
<title>AppComponent</title>
<polygon fill="#ffffb3" stroke="#000000" points="1601.9399,-122 1496.0601,-122 1496.0601,-86 1601.9399,-86 1601.9399,-122"/>
<text text-anchor="middle" x="1549" y="-99.8" font-family="Times,serif" font-size="14.00" fill="#000000">AppComponent</text>
</g>
<!-- AppModule -->
<g id="node11" class="node">
<title>AppModule</title>
<polygon fill="#8dd3c7" stroke="#000000" points="921.6571,-187 918.6571,-191 897.6571,-191 894.6571,-187 838.3429,-187 838.3429,-151 921.6571,-151 921.6571,-187"/>
<text text-anchor="middle" x="880" y="-164.8" font-family="Times,serif" font-size="14.00" fill="#000000">AppModule</text>
</g>
<!-- AppComponent&#45;&gt;AppModule -->
<g id="edge1" class="edge">
<title>AppComponent&#45;&gt;AppModule</title>
<path fill="none" stroke="#000000" d="M1549,-122.2479C1549,-145.0179 1549,-181 1549,-181 1549,-181 931.8489,-181 931.8489,-181"/>
<polygon fill="#000000" stroke="#000000" points="931.849,-177.5001 921.8489,-181 931.8489,-184.5001 931.849,-177.5001"/>
</g>
<!-- FancyComponent -->
<g id="node2" class="node">
<title>FancyComponent</title>
<polygon fill="#ffffb3" stroke="#000000" points="1478.5451,-122 1363.4549,-122 1363.4549,-86 1478.5451,-86 1478.5451,-122"/>
<text text-anchor="middle" x="1421" y="-99.8" font-family="Times,serif" font-size="14.00" fill="#000000">FancyComponent</text>
</g>
<!-- FancyComponent&#45;&gt;AppModule -->
<g id="edge2" class="edge">
<title>FancyComponent&#45;&gt;AppModule</title>
<path fill="none" stroke="#000000" d="M1421,-122.2843C1421,-143.3211 1421,-175 1421,-175 1421,-175 932.0012,-175 932.0012,-175"/>
<polygon fill="#000000" stroke="#000000" points="932.0012,-171.5001 922.0012,-175 932.0012,-178.5001 932.0012,-171.5001"/>
</g>
<!-- FiltreQCMPipe -->
<g id="node3" class="node">
<title>FiltreQCMPipe</title>
<polygon fill="#ffffb3" stroke="#000000" points="1345.6053,-122 1242.3947,-122 1242.3947,-86 1345.6053,-86 1345.6053,-122"/>
<text text-anchor="middle" x="1294" y="-99.8" font-family="Times,serif" font-size="14.00" fill="#000000">FiltreQCMPipe</text>
</g>
<!-- FiltreQCMPipe&#45;&gt;AppModule -->
<g id="edge3" class="edge">
<title>FiltreQCMPipe&#45;&gt;AppModule</title>
<path fill="none" stroke="#000000" d="M1294,-122.1061C1294,-141.3391 1294,-169 1294,-169 1294,-169 931.9748,-169 931.9748,-169"/>
<polygon fill="#000000" stroke="#000000" points="931.9749,-165.5001 921.9748,-169 931.9748,-172.5001 931.9749,-165.5001"/>
</g>
<!-- HomeComponent -->
<g id="node4" class="node">
<title>HomeComponent</title>
<polygon fill="#ffffb3" stroke="#000000" points="1224.5451,-122 1109.4549,-122 1109.4549,-86 1224.5451,-86 1224.5451,-122"/>
<text text-anchor="middle" x="1167" y="-99.8" font-family="Times,serif" font-size="14.00" fill="#000000">HomeComponent</text>
</g>
<!-- HomeComponent&#45;&gt;AppModule -->
<g id="edge4" class="edge">
<title>HomeComponent&#45;&gt;AppModule</title>
<path fill="none" stroke="#000000" d="M1167,-122.0225C1167,-139.3734 1167,-163 1167,-163 1167,-163 931.7323,-163 931.7323,-163"/>
<polygon fill="#000000" stroke="#000000" points="931.7323,-159.5001 921.7323,-163 931.7322,-166.5001 931.7323,-159.5001"/>
</g>
<!-- MainComponent -->
<g id="node5" class="node">
<title>MainComponent</title>
<polygon fill="#ffffb3" stroke="#000000" points="1091.3823,-122 980.6177,-122 980.6177,-86 1091.3823,-86 1091.3823,-122"/>
<text text-anchor="middle" x="1036" y="-99.8" font-family="Times,serif" font-size="14.00" fill="#000000">MainComponent</text>
</g>
<!-- MainComponent&#45;&gt;AppModule -->
<g id="edge5" class="edge">
<title>MainComponent&#45;&gt;AppModule</title>
<path fill="none" stroke="#000000" d="M1036,-122.2396C1036,-137.5706 1036,-157 1036,-157 1036,-157 931.8051,-157 931.8051,-157"/>
<polygon fill="#000000" stroke="#000000" points="931.8052,-153.5001 921.8051,-157 931.8051,-160.5001 931.8052,-153.5001"/>
</g>
<!-- PageNotFoundComponent -->
<g id="node6" class="node">
<title>PageNotFoundComponent</title>
<polygon fill="#ffffb3" stroke="#000000" points="962.8243,-122 797.1757,-122 797.1757,-86 962.8243,-86 962.8243,-122"/>
<text text-anchor="middle" x="880" y="-99.8" font-family="Times,serif" font-size="14.00" fill="#000000">PageNotFoundComponent</text>
</g>
<!-- PageNotFoundComponent&#45;&gt;AppModule -->
<g id="edge6" class="edge">
<title>PageNotFoundComponent&#45;&gt;AppModule</title>
<path fill="none" stroke="#000000" d="M880,-122.1061C880,-122.1061 880,-140.991 880,-140.991"/>
<polygon fill="#000000" stroke="#000000" points="876.5001,-140.9909 880,-150.991 883.5001,-140.991 876.5001,-140.9909"/>
</g>
<!-- PopupmediaComponent -->
<g id="node7" class="node">
<title>PopupmediaComponent</title>
<polygon fill="#ffffb3" stroke="#000000" points="779.8258,-122 628.1742,-122 628.1742,-86 779.8258,-86 779.8258,-122"/>
<text text-anchor="middle" x="704" y="-99.8" font-family="Times,serif" font-size="14.00" fill="#000000">PopupmediaComponent</text>
</g>
<!-- PopupmediaComponent&#45;&gt;AppModule -->
<g id="edge7" class="edge">
<title>PopupmediaComponent&#45;&gt;AppModule</title>
<path fill="none" stroke="#000000" d="M704,-122.2396C704,-137.5706 704,-157 704,-157 704,-157 828.2905,-157 828.2905,-157"/>
<polygon fill="#000000" stroke="#000000" points="828.2905,-160.5001 838.2905,-157 828.2904,-153.5001 828.2905,-160.5001"/>
</g>
<!-- QcmListComponent -->
<g id="node8" class="node">
<title>QcmListComponent</title>
<polygon fill="#ffffb3" stroke="#000000" points="610.323,-122 479.677,-122 479.677,-86 610.323,-86 610.323,-122"/>
<text text-anchor="middle" x="545" y="-99.8" font-family="Times,serif" font-size="14.00" fill="#000000">QcmListComponent</text>
</g>
<!-- QcmListComponent&#45;&gt;AppModule -->
<g id="edge8" class="edge">
<title>QcmListComponent&#45;&gt;AppModule</title>
<path fill="none" stroke="#000000" d="M545,-122.0225C545,-139.3734 545,-163 545,-163 545,-163 828.2494,-163 828.2494,-163"/>
<polygon fill="#000000" stroke="#000000" points="828.2494,-166.5001 838.2494,-163 828.2493,-159.5001 828.2494,-166.5001"/>
</g>
<!-- QcmPlayComponent -->
<g id="node9" class="node">
<title>QcmPlayComponent</title>
<polygon fill="#ffffb3" stroke="#000000" points="461.9327,-122 328.0673,-122 328.0673,-86 461.9327,-86 461.9327,-122"/>
<text text-anchor="middle" x="395" y="-99.8" font-family="Times,serif" font-size="14.00" fill="#000000">QcmPlayComponent</text>
</g>
<!-- QcmPlayComponent&#45;&gt;AppModule -->
<g id="edge9" class="edge">
<title>QcmPlayComponent&#45;&gt;AppModule</title>
<path fill="none" stroke="#000000" d="M395,-122.1061C395,-141.3391 395,-169 395,-169 395,-169 828.2294,-169 828.2294,-169"/>
<polygon fill="#000000" stroke="#000000" points="828.2294,-172.5001 838.2294,-169 828.2294,-165.5001 828.2294,-172.5001"/>
</g>
<!-- TemplateComponent -->
<g id="node10" class="node">
<title>TemplateComponent</title>
<polygon fill="#ffffb3" stroke="#000000" points="310.2008,-122 175.7992,-122 175.7992,-86 310.2008,-86 310.2008,-122"/>
<text text-anchor="middle" x="243" y="-99.8" font-family="Times,serif" font-size="14.00" fill="#000000">TemplateComponent</text>
</g>
<!-- TemplateComponent&#45;&gt;AppModule -->
<g id="edge10" class="edge">
<title>TemplateComponent&#45;&gt;AppModule</title>
<path fill="none" stroke="#000000" d="M243,-122.2843C243,-143.3211 243,-175 243,-175 243,-175 828.2047,-175 828.2047,-175"/>
<polygon fill="#000000" stroke="#000000" points="828.2047,-178.5001 838.2047,-175 828.2046,-171.5001 828.2047,-178.5001"/>
</g>
<!-- MainComponent  -->
<g id="node13" class="node">
<title>MainComponent </title>
<polygon fill="#80b1d3" stroke="#000000" points="937.3828,-252 822.6172,-252 822.6172,-216 937.3828,-216 937.3828,-252"/>
<text text-anchor="middle" x="880" y="-229.8" font-family="Times,serif" font-size="14.00" fill="#000000">MainComponent </text>
</g>
<!-- AppModule&#45;&gt;MainComponent  -->
<g id="edge12" class="edge">
<title>AppModule&#45;&gt;MainComponent </title>
<path fill="none" stroke="#000000" stroke-dasharray="1,5" d="M880,-187.1061C880,-187.1061 880,-205.991 880,-205.991"/>
<polygon fill="#000000" stroke="#000000" points="876.5001,-205.9909 880,-215.991 883.5001,-205.991 876.5001,-205.9909"/>
</g>
<!-- AppRoutingModule -->
<g id="node12" class="node">
<title>AppRoutingModule</title>
<polygon fill="#8dd3c7" stroke="#000000" points="152.2744,-122 149.2744,-126 128.2744,-126 125.2744,-122 23.7256,-122 23.7256,-86 152.2744,-86 152.2744,-122"/>
<text text-anchor="middle" x="88" y="-99.8" font-family="Times,serif" font-size="14.00" fill="#000000">AppRoutingModule</text>
</g>
<!-- AppRoutingModule&#45;&gt;AppModule -->
<g id="edge11" class="edge">
<title>AppRoutingModule&#45;&gt;AppModule</title>
<path fill="none" stroke="#000000" d="M88,-122.2479C88,-145.0179 88,-181 88,-181 88,-181 828.2562,-181 828.2562,-181"/>
<polygon fill="#000000" stroke="#000000" points="828.2562,-184.5001 838.2562,-181 828.2562,-177.5001 828.2562,-184.5001"/>
</g>
</g>
</svg>
